<mxfile host="app.diagrams.net" modified="2023-09-08T22:58:00.724Z" agent="Mozilla/5.0 (Macintosh; Intel Mac OS X 10_15_7) AppleWebKit/605.1.15 (KHTML, like Gecko) Version/15.4 Safari/605.1.15" version="21.7.4" etag="d8fMHNMoajUx653MDG1O" type="github">
  <diagram name="Page-1" id="tNpm3luykAOU0QL-RDOy">
    <mxGraphModel>
      <root>
        <mxCell id="0" />
        <mxCell id="1" parent="0" />
      </root>
    </mxGraphModel>
  </diagram>
</mxfile>
